<?xml version="1.0" encoding="UTF-8" standalone="no"?>
<svg
   width="24"
   height="24"
   viewBox="0 0 24 24"
   fill="none"
   stroke="currentColor"
   stroke-width="2"
   stroke-linecap="round"
   stroke-linejoin="round"
   class="feather feather-phone"
   version="1.1"
   id="svg1"
   sodipodi:docname="phone-hang-up.svg"
   inkscape:export-filename="phone-hang-up.svg"
   inkscape:export-xdpi="96"
   inkscape:export-ydpi="96"
   inkscape:version="1.3 (0e150ed6c4, 2023-07-21)"
   xmlns:inkscape="http://www.inkscape.org/namespaces/inkscape"
   xmlns:sodipodi="http://sodipodi.sourceforge.net/DTD/sodipodi-0.dtd"
   xmlns="http://www.w3.org/2000/svg"
   xmlns:svg="http://www.w3.org/2000/svg">
  <defs
     id="defs1" />
  <sodipodi:namedview
     id="namedview1"
     pagecolor="#ffffff"
     bordercolor="#666666"
     borderopacity="1.0"
     inkscape:showpageshadow="2"
     inkscape:pageopacity="0.0"
     inkscape:pagecheckerboard="0"
     inkscape:deskcolor="#d1d1d1"
     inkscape:zoom="32.791667"
     inkscape:cx="12"
     inkscape:cy="12"
     inkscape:window-width="1920"
     inkscape:window-height="1001"
     inkscape:window-x="-9"
     inkscape:window-y="-9"
     inkscape:window-maximized="1"
     inkscape:current-layer="svg1" />
  <path
     d="m 3.347464,14.635798 -1.7534934,-1.71182 a 1.6532094,1.6139193 0 0 1 0.1052096,-2.385135 16.358507,15.969731 0 0 1 6.8386242,-3.1725734 16.118792,15.735713 0 0 1 7.0139736,0 16.358507,15.969731 0 0 1 6.862004,3.1953974 1.6532094,1.6139193 0 0 1 0.111055,2.379429 l -1.753494,1.711821 a 1.6532094,1.6139193 0 0 1 -2.174331,0.159769 10.613604,10.361362 0 0 0 -2.051588,-1.20398 1.6532094,1.6139193 0 0 1 -0.970266,-1.460753 v -1.44934 a 13.225675,12.911354 0 0 0 -7.0139737,0 v 1.44934 A 1.6532094,1.6139193 0 0 1 7.590918,13.608706 10.613604,10.361362 0 0 0 5.5393307,14.812686 1.6532094,1.6139193 0 0 1 3.347464,14.635798 Z"
     id="path1"
     style="stroke-width:1.7;stroke-dasharray:none" />
</svg>
