<?xml version="1.0" encoding="UTF-8" standalone="no"?>
<!-- Created with Inkscape (http://www.inkscape.org/) -->

<svg
   width="32"
   height="32"
   viewBox="0 0 32 32"
   version="1.1"
   id="svg1"
   inkscape:version="1.3 (0e150ed6c4, 2023-07-21)"
   sodipodi:docname="uvu-logo.svg"
   inkscape:export-filename="icons\uvu-logo.svg"
   inkscape:export-xdpi="96"
   inkscape:export-ydpi="96"
   xmlns:inkscape="http://www.inkscape.org/namespaces/inkscape"
   xmlns:sodipodi="http://sodipodi.sourceforge.net/DTD/sodipodi-0.dtd"
   xmlns="http://www.w3.org/2000/svg"
   xmlns:svg="http://www.w3.org/2000/svg">
  <sodipodi:namedview
     id="namedview1"
     pagecolor="#ffffff"
     bordercolor="#666666"
     borderopacity="1.0"
     inkscape:showpageshadow="2"
     inkscape:pageopacity="0.0"
     inkscape:pagecheckerboard="0"
     inkscape:deskcolor="#d1d1d1"
     inkscape:document-units="px"
     inkscape:zoom="1.5371094"
     inkscape:cx="256"
     inkscape:cy="256"
     inkscape:window-width="1920"
     inkscape:window-height="1001"
     inkscape:window-x="-9"
     inkscape:window-y="-9"
     inkscape:window-maximized="1"
     inkscape:current-layer="layer1" />
  <defs
     id="defs1" />
  <g
     inkscape:label="Layer 1"
     inkscape:groupmode="layer"
     id="layer1">
    <g
       id="g15"
       transform="matrix(0.09375651,0,0,0.09375651,-8.5427249,-0.10100455)"
       style="stroke-width:10.6659">
      <path
         id="path4"
         style="font-size:200px;line-height:1.25;font-family:'Arial Rounded MT Bold';-inkscape-font-specification:'Arial Rounded MT Bold, ';display:inline;fill:#f9f9f9;stroke-width:10.6659"
         d="m 405.82812,97.708984 c -4.36197,0 -7.84505,1.464847 -10.44921,4.394536 -2.60417,2.86458 -3.90625,7.25912 -3.90625,13.18359 v 70.99609 c 0,12.23957 -2.34376,21.38673 -7.03125,27.44141 -4.6875,5.98958 -12.69533,8.98437 -24.02344,8.98437 -8.20311,0 -14.58334,-1.46484 -19.14063,-4.39453 -4.55729,-2.99479 -7.7474,-7.16146 -9.57031,-12.5 -1.75781,-5.40364 -2.63672,-12.10938 -2.63672,-20.11718 v -70.22852 c -0.1284,0.79092 -0.24448,1.58351 -0.42578,2.36914 a 10.912583,10.912583 0 0 1 -0.0234,0.0937 c -0.48692,2.02882 -1.09175,4.04004 -1.80859,6.03125 a 10.912583,10.912583 0 0 1 -0.0488,0.13672 c -0.55095,1.4692 -1.10641,3.00817 -1.66406,4.61914 a 10.912583,10.912583 0 0 1 -0.0781,0.22266 l -24.5039,66.12695 c 0.53667,6.28479 1.55277,11.95715 3.06445,16.99609 2.34375,7.74739 6.02214,14.12761 11.03516,19.14063 5.01301,4.94791 11.49089,8.6263 19.43359,11.03515 7.9427,2.34375 17.41537,3.51563 28.41797,3.51563 9.24478,0 17.31771,-1.10678 24.21875,-3.32031 6.90103,-2.21354 12.95573,-5.72918 18.16406,-10.54688 6.05468,-5.66406 10.15625,-12.23959 12.30469,-19.72656 2.21354,-7.48697 3.32031,-16.82944 3.32031,-28.02734 v -68.84766 c 0,-5.92447 -1.36719,-10.31901 -4.10156,-13.18359 -2.66927,-2.929689 -6.1849,-4.394536 -10.54688,-4.394536 z" />
      <path
         id="path2"
         style="font-size:200px;line-height:1.25;font-family:'Arial Rounded MT Bold';-inkscape-font-specification:'Arial Rounded MT Bold, ';fill:#f9f9f9;stroke-width:10.6659"
         d="m 117.41992,97.708984 c -4.29687,0 -7.77995,1.464847 -10.44922,4.394536 -2.60416,2.92968 -3.90625,7.32422 -3.90625,13.18359 v 68.84766 c 0,10.80728 1.17188,20.11719 3.51563,27.92968 2.34374,7.74739 6.02213,14.12761 11.03515,19.14063 5.01302,4.94791 11.4909,8.6263 19.4336,11.03515 7.9427,2.34375 17.41537,3.51563 28.41797,3.51563 9.24477,0 17.31771,-1.10678 24.21875,-3.32031 6.90104,-2.21354 12.95573,-5.72918 18.16406,-10.54688 4.77216,-4.46429 8.31269,-9.50484 10.6582,-15.10156 L 194.4707,151.35938 v 34.92382 c 0,12.23957 -2.34375,21.38673 -7.03125,27.44141 -4.68749,5.98958 -12.69532,8.98437 -24.02343,8.98437 -8.20312,0 -14.58334,-1.46484 -19.14063,-4.39453 -4.55729,-2.99479 -7.7474,-7.16146 -9.57031,-12.5 -1.75781,-5.40364 -2.63672,-12.10938 -2.63672,-20.11718 v -70.41016 c 0,-5.85937 -1.33464,-10.25391 -4.00391,-13.18359 -2.60416,-2.929689 -6.15235,-4.394536 -10.64453,-4.394536 z" />
      <path
         id="path7"
         style="font-size:200px;line-height:1.25;font-family:'Arial Rounded MT Bold';-inkscape-font-specification:'Arial Rounded MT Bold, ';display:inline;fill:#00ffff;stroke-width:10.6659"
         d="m 207.17188,97.708984 c -4.03645,0 -7.38933,1.367192 -10.0586,4.101566 -2.66927,2.73437 -4.00391,5.76172 -4.0039,9.08203 -10e-6,1.30208 0.19531,2.89714 0.58593,4.78515 0.45574,1.88802 0.97657,3.64584 1.5625,5.27344 0.65104,1.6276 1.26953,3.28776 1.85547,4.98047 l 34.08203,92.77344 c 1.23698,3.58073 2.47396,6.96615 3.71094,10.15625 1.23698,3.1901 2.66928,6.05469 4.29687,8.59375 1.69272,2.47396 3.87371,4.45964 6.54297,5.95703 2.73438,1.5625 6.0547,2.34375 9.96094,2.34375 3.90625,0 7.19402,-0.78125 9.86328,-2.34375 2.73437,-1.5625 4.91537,-3.54818 6.54297,-5.95703 1.62761,-2.47395 3.0599,-5.30599 4.29688,-8.4961 1.23697,-3.2552 2.47395,-6.67317 3.71093,-10.2539 l 8.32032,-22.45313 c -0.33495,-3.88357 -0.50196,-7.91688 -0.50196,-12.11718 v -65.17969 l -31.54883,93.79297 -32.42187,-95.9961 c -2.14844,-6.64062 -4.26432,-11.45833 -6.34766,-14.45312 -2.01822,-3.059893 -5.5013,-4.589846 -10.44921,-4.589846 z" />
      <path
         style="font-size:200px;line-height:1.25;font-family:'Arial Rounded MT Bold';-inkscape-font-specification:'Arial Rounded MT Bold, ';display:inline;fill:#f9f9f9;stroke-width:10.6659"
         d="m 300.06713,184.13417 v -68.84766 q 0,-8.78906 3.90625,-13.18359 4.00391,-4.394531 10.44922,-4.394531 6.73828,0 10.64453,4.394531 4.00391,4.39453 4.00391,13.18359 v 70.41016 q 0,12.01172 2.63672,20.11719 2.73437,8.00781 9.57031,12.5 6.83594,4.39453 19.14062,4.39453 16.99219,0 24.02344,-8.98438 7.03125,-9.08203 7.03125,-27.4414 v -70.9961 q 0,-8.88671 3.90625,-13.18359 3.90625,-4.394531 10.44922,-4.394531 6.54297,0 10.54688,4.394531 4.10156,4.29688 4.10156,13.18359 v 68.84766 q 0,16.79688 -3.32031,28.02734 -3.22266,11.23047 -12.30469,19.72657 -7.8125,7.22656 -18.16406,10.54687 -10.35157,3.32031 -24.21875,3.32031 -16.50391,0 -28.41797,-3.51562 -11.91407,-3.61328 -19.4336,-11.03516 -7.51953,-7.51953 -11.03515,-19.14062 -3.51563,-11.71875 -3.51563,-27.92969 z"
         id="path15" />
    </g>
  </g>
</svg>
