<?xml version="1.0" encoding="UTF-8" standalone="no"?>
<!-- Created with Inkscape (http://www.inkscape.org/) -->

<svg
   width="98.032127"
   height="98.03212"
   viewBox="0 0 98.032127 98.032124"
   version="1.1"
   id="svg5"
   inkscape:version="1.2 (dc2aedaf03, 2022-05-15)"
   sodipodi:docname="pearrd-mockup.svg"
   inkscape:export-filename="pearrd-mockup.pdf"
   inkscape:export-xdpi="96"
   inkscape:export-ydpi="96"
   xml:space="preserve"
   xmlns:inkscape="http://www.inkscape.org/namespaces/inkscape"
   xmlns:sodipodi="http://sodipodi.sourceforge.net/DTD/sodipodi-0.dtd"
   xmlns="http://www.w3.org/2000/svg"
   xmlns:svg="http://www.w3.org/2000/svg"><sodipodi:namedview
     id="namedview7"
     pagecolor="#ffffff"
     bordercolor="#666666"
     borderopacity="1.0"
     inkscape:showpageshadow="2"
     inkscape:pageopacity="0.0"
     inkscape:pagecheckerboard="0"
     inkscape:deskcolor="#d1d1d1"
     inkscape:document-units="px"
     showgrid="false"
     showguides="true"
     inkscape:zoom="0.63699437"
     inkscape:cx="943.49343"
     inkscape:cy="592.6269"
     inkscape:window-width="1920"
     inkscape:window-height="1001"
     inkscape:window-x="-9"
     inkscape:window-y="-9"
     inkscape:window-maximized="1"
     inkscape:current-layer="layer1" /><defs
     id="defs2"><clipPath
       clipPathUnits="userSpaceOnUse"
       id="clipPath1803"><path
         d="M 0,500 H 500 V 0 H 0 Z"
         id="path1801" /></clipPath><clipPath
       clipPathUnits="userSpaceOnUse"
       id="clipPath1835"><path
         d="M 0,500 H 500 V 0 H 0 Z"
         id="path1833" /></clipPath><clipPath
       clipPathUnits="userSpaceOnUse"
       id="clipPath1859"><path
         d="M 0,500 H 500 V 0 H 0 Z"
         id="path1857" /></clipPath></defs><g
     inkscape:label="Layer 1"
     inkscape:groupmode="layer"
     id="layer1"
     transform="translate(-25.453979,-18.080711)"><g
       id="g1793"
       inkscape:label="Logo"
       transform="matrix(0.23294726,0,0,-0.23294726,16.233229,125.33359)"
       style="display:inline"><path
         d="M 497,2 H 3 v 496 h 494 z"
         style="display:none;fill:#828383;fill-opacity:1;fill-rule:nonzero;stroke:none"
         id="path1795"
         inkscape:label="bg"
         sodipodi:insensitive="true" /><g
         id="g1797"
         style="display:none"><g
           id="g1799"
           clip-path="url(#clipPath1803)"><g
             id="g1805"
             transform="translate(430.417,123.708)"><path
               d="m 0,0 c 0,-29.892 -24.231,-54.125 -54.124,-54.125 h -252.584 c -29.893,0 -54.126,24.233 -54.126,54.125 v 252.584 c 0,29.893 24.233,54.125 54.126,54.125 H -54.124 C -24.231,306.709 0,282.477 0,252.584 Z"
               style="fill:#ffffff;fill-opacity:1;fill-rule:nonzero;stroke:none"
               id="path1807" /></g><g
             id="g1809"
             transform="translate(430.417,123.708)"><path
               d="m 0,0 c 0,-29.892 -24.231,-54.125 -54.124,-54.125 h -252.584 c -29.893,0 -54.126,24.233 -54.126,54.125 v 252.584 c 0,29.893 24.233,54.125 54.126,54.125 H -54.124 C -24.231,306.709 0,282.477 0,252.584 Z"
               style="fill:none;stroke:#231f20;stroke-width:60;stroke-linecap:round;stroke-linejoin:miter;stroke-miterlimit:10;stroke-dasharray:none;stroke-opacity:1"
               id="path1811" /></g><g
             id="g1813"
             transform="translate(265,265)"><path
               d="m 0,0 c 0,-8.284 -6.716,-15 -15,-15 h -76 c -8.284,0 -15,6.716 -15,15 v 58 c 0,8.284 6.716,15 15,15 h 76 C -6.716,73 0,66.284 0,58 Z"
               style="fill:#ffffff;fill-opacity:1;fill-rule:nonzero;stroke:none"
               id="path1815" /></g><g
             id="g1817"
             transform="translate(265,265)"><path
               d="m 0,0 c 0,-8.284 -6.716,-15 -15,-15 h -76 c -8.284,0 -15,6.716 -15,15 v 58 c 0,8.284 6.716,15 15,15 h 76 C -6.716,73 0,66.284 0,58 Z"
               style="fill:none;stroke:#231f20;stroke-width:60;stroke-linecap:round;stroke-linejoin:miter;stroke-miterlimit:10;stroke-dasharray:none;stroke-opacity:1"
               id="path1819" /></g><g
             id="g1821"
             transform="translate(337,177)"><path
               d="m 0,0 c 0,-8.284 -6.716,-15 -15,-15 h -76 c -8.284,0 -15,6.716 -15,15 v 58 c 0,8.284 6.716,15 15,15 h 76 C -6.716,73 0,66.284 0,58 Z"
               style="fill:#ffffff;fill-opacity:1;fill-rule:nonzero;stroke:none"
               id="path1823" /></g><g
             id="g1825"
             transform="translate(337,177)"><path
               d="m 0,0 c 0,-8.284 -6.716,-15 -15,-15 h -76 c -8.284,0 -15,6.716 -15,15 v 58 c 0,8.284 6.716,15 15,15 h 76 C -6.716,73 0,66.284 0,58 Z"
               style="fill:none;stroke:#231f20;stroke-width:60;stroke-linecap:round;stroke-linejoin:miter;stroke-miterlimit:10;stroke-dasharray:none;stroke-opacity:1"
               id="path1827" /></g></g></g><g
         id="g1829"
         style="display:inline"><g
           id="g1831"
           clip-path="url(#clipPath1835)"><g
             id="g1837"
             transform="translate(430.417,123.708)"><path
               d="m 0,0 c 0,-29.892 -24.231,-54.125 -54.124,-54.125 h -252.584 c -29.893,0 -54.126,24.233 -54.126,54.125 v 252.584 c 0,29.893 24.233,54.125 54.126,54.125 H -54.124 C -24.231,306.709 0,282.477 0,252.584 Z"
               style="fill:none;stroke:#ffffff;stroke-width:60;stroke-linecap:round;stroke-linejoin:miter;stroke-miterlimit:10;stroke-dasharray:none;stroke-opacity:1"
               id="path1839" /></g><g
             id="g1841"
             transform="translate(353.5,266)"><path
               d="m 0,0 c 0,-8.284 -6.716,-15 -15,-15 h -76 c -8.284,0 -15,6.716 -15,15 v 58 c 0,8.284 6.716,15 15,15 h 76 C -6.716,73 0,66.284 0,58 Z"
               style="fill:none;stroke:#ffffff;stroke-width:60;stroke-linecap:round;stroke-linejoin:miter;stroke-miterlimit:10;stroke-dasharray:none;stroke-opacity:1"
               id="path1843" /></g><g
             id="g1845"
             transform="translate(172,251)"><path
               d="m 0,0 h 65 c 8.284,0 15,-6.716 15,-15 v -58 c 0,-8.284 -6.716,-15 -15,-15 H -1"
               style="fill:none;stroke:#ffffff;stroke-width:60;stroke-linecap:round;stroke-linejoin:miter;stroke-miterlimit:10;stroke-dasharray:none;stroke-opacity:1"
               id="path1847" /></g><g
             id="g1849"
             transform="translate(218.502,163)"><path
               d="m 0,0 h -56.271 c -8.963,0 -16.231,6.716 -16.231,15 v 58 c 0,8.284 7.268,15 16.231,15 h 55.187"
               style="fill:none;stroke:#00ccff;stroke-width:60;stroke-linecap:butt;stroke-linejoin:miter;stroke-miterlimit:10;stroke-dasharray:none;stroke-opacity:1"
               id="path1851" /></g></g></g><g
         id="g1853"
         style="display:none"><g
           id="g1855"
           clip-path="url(#clipPath1859)"><g
             id="g1861"
             transform="translate(430.417,123.708)"><path
               d="m 0,0 c 0,-29.892 -24.231,-54.125 -54.124,-54.125 h -252.584 c -29.893,0 -54.126,24.233 -54.126,54.125 v 252.584 c 0,29.893 24.233,54.125 54.126,54.125 H -54.124 C -24.231,306.709 0,282.477 0,252.584 Z"
               style="fill:none;stroke:#5a5da9;stroke-width:60;stroke-linecap:round;stroke-linejoin:miter;stroke-miterlimit:10;stroke-dasharray:none;stroke-opacity:1"
               id="path1863" /></g><g
             id="g1865"
             transform="translate(353.5,266)"><path
               d="m 0,0 c 0,-8.284 -6.716,-15 -15,-15 h -76 c -8.284,0 -15,6.716 -15,15 v 58 c 0,8.284 6.716,15 15,15 h 76 C -6.716,73 0,66.284 0,58 Z"
               style="fill:none;stroke:#5a5da9;stroke-width:60;stroke-linecap:round;stroke-linejoin:miter;stroke-miterlimit:10;stroke-dasharray:none;stroke-opacity:1"
               id="path1867" /></g><g
             id="g1869"
             transform="translate(172,251)"><path
               d="m 0,0 h 65 c 8.284,0 15,-6.716 15,-15 v -58 c 0,-8.284 -6.716,-15 -15,-15 H -1"
               style="fill:none;stroke:#5a5da9;stroke-width:60;stroke-linecap:round;stroke-linejoin:miter;stroke-miterlimit:10;stroke-dasharray:none;stroke-opacity:1"
               id="path1871" /></g><g
             id="g1873"
             transform="translate(218.502,163)"><path
               d="m 0,0 h -56.271 c -8.963,0 -16.231,6.716 -16.231,15 v 58 c 0,8.284 7.268,15 16.231,15 h 55.187"
               style="fill:none;stroke:#333332;stroke-width:60;stroke-linecap:butt;stroke-linejoin:miter;stroke-miterlimit:10;stroke-dasharray:none;stroke-opacity:1"
               id="path1875" /></g></g></g></g></g></svg>
