<?xml version="1.0" encoding="UTF-8" standalone="no"?>
<!-- Created with Inkscape (http://www.inkscape.org/) -->

<svg
   width="129.76941"
   height="129.76941"
   viewBox="0 0 129.76941 129.76941"
   version="1.1"
   id="svg5"
   inkscape:version="1.2 (dc2aedaf03, 2022-05-15)"
   sodipodi:docname="pearrd-mockup.svg"
   inkscape:export-filename="pearrd-mockup.pdf"
   inkscape:export-xdpi="96"
   inkscape:export-ydpi="96"
   xml:space="preserve"
   xmlns:inkscape="http://www.inkscape.org/namespaces/inkscape"
   xmlns:sodipodi="http://sodipodi.sourceforge.net/DTD/sodipodi-0.dtd"
   xmlns="http://www.w3.org/2000/svg"
   xmlns:svg="http://www.w3.org/2000/svg"><sodipodi:namedview
     id="namedview7"
     pagecolor="#ffffff"
     bordercolor="#666666"
     borderopacity="1.0"
     inkscape:showpageshadow="2"
     inkscape:pageopacity="0.0"
     inkscape:pagecheckerboard="0"
     inkscape:deskcolor="#d1d1d1"
     inkscape:document-units="px"
     showgrid="false"
     showguides="true"
     inkscape:zoom="0.63699437"
     inkscape:cx="943.49343"
     inkscape:cy="592.6269"
     inkscape:window-width="1920"
     inkscape:window-height="1001"
     inkscape:window-x="-9"
     inkscape:window-y="-9"
     inkscape:window-maximized="1"
     inkscape:current-layer="layer1" /><defs
     id="defs2" /><g
     inkscape:label="Layer 1"
     inkscape:groupmode="layer"
     id="layer1"
     transform="translate(-1541.3868,-1319.8802)"><path
       d="m 1625.737,1332.8572 v 45.4192 h -63.7816 l -7.5915,7.5915 v -53.0107 h 71.3731 m 6.4885,-12.977 h -84.3501 a 6.4884682,6.4884682 0 0 0 -6.4885,6.4885 v 90.8385 l 25.9539,-25.9538 h 64.8847 a 6.4884682,6.4884682 0 0 0 6.4884,-6.4885 v -58.3962 a 6.4884682,6.4884682 0 0 0 -6.4884,-6.4885 m 32.4423,25.9539 h -12.9769 v 58.3962 h -84.3501 v 12.9769 a 6.4884682,6.4884682 0 0 0 6.4885,6.4885 h 71.3731 l 25.9539,25.9539 v -97.327 a 6.4884682,6.4884682 0 0 0 -6.4885,-6.4885 z"
       id="path4546"
       style="fill:#00ccff;stroke-width:6.48847" /></g></svg>
