<?xml version="1.0" encoding="UTF-8" standalone="no"?>
<svg
   width="24"
   height="24"
   viewBox="0 0 24 24"
   fill="none"
   stroke="currentColor"
   stroke-width="2"
   stroke-linecap="round"
   stroke-linejoin="round"
   class="feather feather-phone"
   version="1.1"
   id="svg1"
   sodipodi:docname="phone.svg"
   xml:space="preserve"
   inkscape:export-filename="phone-share.svg"
   inkscape:export-xdpi="96"
   inkscape:export-ydpi="96"
   xmlns:inkscape="http://www.inkscape.org/namespaces/inkscape"
   xmlns:sodipodi="http://sodipodi.sourceforge.net/DTD/sodipodi-0.dtd"
   xmlns="http://www.w3.org/2000/svg"
   xmlns:svg="http://www.w3.org/2000/svg"><defs
     id="defs1" /><sodipodi:namedview
     id="namedview1"
     pagecolor="#ffffff"
     bordercolor="#666666"
     borderopacity="1.0"
     inkscape:showpageshadow="2"
     inkscape:pageopacity="0.0"
     inkscape:pagecheckerboard="0"
     inkscape:deskcolor="#d1d1d1" /><path
     d="m 22,16.92 v 3 a 2,2 0 0 1 -2.18,2 19.79,19.79 0 0 1 -8.63,-3.07 19.5,19.5 0 0 1 -6,-6 A 19.79,19.79 0 0 1 2.12,4.18 2,2 0 0 1 4.11,2 h 3 a 2,2 0 0 1 2,1.72 12.84,12.84 0 0 0 0.7,2.81 2,2 0 0 1 -0.45,2.11 L 8.09,9.91 a 16,16 0 0 0 6,6 l 1.27,-1.27 a 2,2 0 0 1 2.11,-0.45 12.84,12.84 0 0 0 2.81,0.7 2,2 0 0 1 1.72,2.03 z"
     id="path1" /><g
     style="fill:none;stroke:currentColor;stroke-width:3.58577;stroke-linecap:round;stroke-linejoin:round;stroke-dasharray:none"
     id="g1"
     transform="matrix(0.44343432,0,0,0.44899998,11.87828,1.0797173)"><circle
       cx="18"
       cy="5"
       r="3"
       id="circle1"
       style="stroke-width:3.58577;stroke-dasharray:none" /><circle
       cx="6"
       cy="12"
       r="3"
       id="circle2"
       style="stroke-width:3.58577;stroke-dasharray:none" /><circle
       cx="18"
       cy="19"
       r="3"
       id="circle3"
       style="stroke-width:3.58577;stroke-dasharray:none" /><line
       x1="8.5900002"
       y1="13.51"
       x2="15.42"
       y2="17.49"
       id="line3"
       style="stroke-width:3.58577;stroke-dasharray:none" /><line
       x1="15.41"
       y1="6.5100002"
       x2="8.5900002"
       y2="10.49"
       id="line4"
       style="stroke-width:3.58577;stroke-dasharray:none" /></g></svg>
